HIERARCHY
ROOT Hips
{
    OFFSET 0.000000 0.000000 0.000000
    CHANNELS 6 Xposition Yposition Zposition Zrotation Xrotation Yrotation
    JOINT Spine
    {
        OFFSET -0.000000 14.517291 0.000000
        CHANNELS 3 Zrotation Xrotation Yrotation
        JOINT Spine1
        {
            OFFSET -0.000000 37.558300 0.000000
            CHANNELS 3 Zrotation Xrotation Yrotation
            JOINT Neck
            {
                OFFSET -0.000000 37.404057 3.400369
                CHANNELS 3 Zrotation Xrotation Yrotation
                JOINT Head
                {
                    OFFSET -0.000000 24.785618 -3.540803
                    CHANNELS 3 Zrotation Xrotation Yrotation
                    End Site
                    {
                        OFFSET -0.000000 35.408028 0.000000
                    }
                }
            }
            JOINT LeftShoulder
            {
                OFFSET 6.992933 33.973492 -0.192664
                CHANNELS 3 Zrotation Xrotation Yrotation
                JOINT LeftArm
                {
                    OFFSET 21.527611 0.000000 0.000000
                    CHANNELS 3 Zrotation Xrotation Yrotation
                    JOINT LeftForeArm
                    {
                        OFFSET 56.353916 0.000000 0.000000
                        CHANNELS 3 Zrotation Xrotation Yrotation
                        JOINT LeftHand
                        {
                            OFFSET 47.774071 0.000000 0.000000
                            CHANNELS 3 Zrotation Xrotation Yrotation
                            End Site
                            {
                                OFFSET 26.556021 0.000000 0.000000
                            }
                        }
                    }
                }
            }
            JOINT RightShoulder
            {
                OFFSET -7.065357 33.973492 -0.192664
                CHANNELS 3 Zrotation Xrotation Yrotation
                JOINT RightArm
                {
                    OFFSET -21.527611 0.000000 0.000000
                    CHANNELS 3 Zrotation Xrotation Yrotation
                    JOINT RightForeArm
                    {
                        OFFSET -56.353916 0.000000 0.000000
                        CHANNELS 3 Zrotation Xrotation Yrotation
                        JOINT RightHand
                        {
                            OFFSET -47.774071 0.000000 0.000000
                            CHANNELS 3 Zrotation Xrotation Yrotation
                            End Site
                            {
                                OFFSET -26.556021 0.000000 0.000000
                            }
                        }
                    }
                }
            }
        }
    }
    JOINT LeftUpLeg
    {
        OFFSET 17.704014 0.000000 0.000000
        CHANNELS 3 Zrotation Xrotation Yrotation
        JOINT LeftLeg
        {
            OFFSET -0.000000 -81.181816 0.000000
            CHANNELS 3 Zrotation Xrotation Yrotation
            JOINT LeftFoot
            {
                OFFSET -0.000000 -62.821102 0.000000
                CHANNELS 3 Zrotation Xrotation Yrotation
                JOINT LeftToeBase
                {
                    OFFSET -0.000000 -11.507608 26.556021
                    CHANNELS 3 Zrotation Xrotation Yrotation
                    End Site
                    {
                        OFFSET -0.000000 0.000000 7.081605
                    }
                }
            }
        }
    }
    JOINT RightUpLeg
    {
        OFFSET -17.704014 0.000000 0.000000
        CHANNELS 3 Zrotation Xrotation Yrotation
        JOINT RightLeg
        {
            OFFSET -0.000000 -81.181816 0.000000
            CHANNELS 3 Zrotation Xrotation Yrotation
            JOINT RightFoot
            {
                OFFSET -0.000000 -62.821102 0.000000
                CHANNELS 3 Zrotation Xrotation Yrotation
                JOINT RightToeBase
                {
                    OFFSET -0.000000 -11.507608 26.556021
                    CHANNELS 3 Zrotation Xrotation Yrotation
                    End Site
                    {
                        OFFSET -0.000000 0.000000 7.081605
                    }
                }
            }
        }
    }
}
MOTION
Frames:    4
Frame Time:    0.008333
17.949362    147.912567    -117.393639    9.150858    4.650438    36.075535    10.276592    -2.577064    -0.476535    -2.914970    -5.901817    -0.391447    12.370404    -4.781005    -18.939884    6.485821    3.629799    -21.410292    11.919632    7.527002    -19.156315    -36.052715    22.494251    -51.578094    -7.354434    -6.821857    -114.329811    2.649551    -18.123236    -6.263630    -9.403672    -6.942486    -8.280191    18.761623    -24.497381    51.146610    -12.969145    -16.012987    46.969326    1.614013    -10.043324    32.248779    -0.097725    2.213129    0.049421    -15.761126    38.744339    -18.965864    15.717078    -30.436518    45.732967    0.000000    0.000000    0.000000    -39.595108    -27.768644    -19.180939    23.810713    47.622116    -21.239002    4.397674    -8.813428    -6.198629    0.000000    0.000000    0.000000    
17.741796    147.964462    -117.389252    8.981865    4.624099    36.031811    10.156640    -2.486485    -0.460981    -2.864676    -5.897641    -0.379788    12.325342    -4.732195    -18.958954    6.459398    3.584309    -21.416252    11.833171    7.504653    -19.234375    -36.055088    22.486284    -51.549519    -7.331207    -6.893228    -114.313171    2.640010    -18.152708    -6.250379    -9.445564    -6.905897    -8.333413    18.828112    -24.572598    51.219341    -12.937221    -15.995104    46.919514    1.550495    -10.063664    32.244968    0.096656    2.070650    0.036811    -15.774270    38.775509    -18.941105    15.653990    -30.442469    45.772518    0.000000    0.000000    0.000000    -39.364426    -27.857637    -19.249319    23.734753    47.525349    -21.176077    4.317937    -8.710744    -6.152958    0.000000    0.000000    0.000000    
17.522116    148.021362    -117.393288    8.800662    4.610828    35.995792    10.021459    -2.387866    -0.501450    -2.779809    -5.975572    -0.387021    12.178342    -4.528116    -18.980293    6.566358    3.500012    -21.372259    11.715460    7.571477    -19.269960    -36.007034    22.482275    -51.526825    -7.299181    -7.034515    -114.307480    2.660602    -18.239157    -6.216950    -9.535594    -6.836964    -8.257699    18.888918    -24.588999    51.227119    -12.974738    -16.017990    46.846828    1.576968    -10.072589    32.268440    0.284080    1.903573    -0.027973    -15.787886    38.795746    -18.860723    15.562523    -30.460739    45.793747    0.000000    0.000000    0.000000    -39.134613    -27.960821    -19.317472    23.624460    47.359661    -21.110443    4.264251    -8.496681    -6.079497    0.000000    0.000000    0.000000    
17.306770    148.083801    -117.404129    8.611864    4.611705    35.957767    9.908420    -2.345457    -0.496582    -2.789186    -5.934652    -0.382722    12.250222    -4.481050    -18.948786    6.453192    3.414426    -21.354769    11.724373    7.573784    -19.295893    -36.035763    22.479424    -51.581013    -7.271500    -7.136025    -114.266403    2.649580    -18.286211    -6.232155    -9.516980    -6.811873    -8.245339    18.846970    -24.595585    51.207542    -13.036097    -16.104103    46.756180    1.616657    -10.135040    32.265518    0.459553    1.721493    -0.084636    -15.781494    38.808052    -18.769632    15.456928    -30.474964    45.790413    0.000000    0.000000    0.000000    -38.922512    -28.064320    -19.389608    23.589199    47.209774    -21.056011    4.170357    -8.350498    -6.067335    0.000000    0.000000    0.000000    
